<?xml version="1.0" encoding="utf-8"?>
<!-- Generator: Adobe Illustrator 25.2.0, SVG Export Plug-In . SVG Version: 6.00 Build 0)  -->
<svg version="1.1" id="Layer_1" xmlns="http://www.w3.org/2000/svg" xmlns:xlink="http://www.w3.org/1999/xlink" x="0px" y="0px"
	 viewBox="0 0 1366 768" style="enable-background:new 0 0 1366 768;" xml:space="preserve">
<style type="text/css">
	.st0{stroke:#000000;stroke-width:0.25;stroke-miterlimit:10;}
	.st1{fill:#FFFFFF;stroke:#000000;stroke-width:0.25;stroke-miterlimit:10;}
</style>
<g>
	<path class="st0" d="M496.7,274c0,0,18.7,8,37.3-24c0,0-41.3,6.7-73.3,49.3c0,0-21.3,48,58.7,26.7l-58.7,90.7L434,483.3l2.7,16
		h33.1c0,0-6.4-13.3-17.1-13.3l18.7-34.7l40-8l22.7-22.7c0,0,14.7-6.6,30.7-6.6v25.4l49,59.9h35.5l-9.8-10.7l-16-8L602,438l13.3-24
		c0,0,26.7,0,42.7,8l16.4,77.3h34.2l-18.6-24l8-45.3l45.3-26.7c0,0-10.7-29.3,5.3-45.3c0,0-2.7,24,2.7,29.3l40,24l5.3,13.3
		c0,0-10.7,13.3,13.3,24h32c0,0,10.7-8,8-24c0,0,10.7,5.3,2.7,32l24,21.3l4.6,21.3h35.2l-69.1-114.7l10.7-13.3l-2.7-32
		c0,0,64,2.7,48-50.7c0,0-10.7-26.7-40-34.7c0,0,40,48,5.3,53.3h-21.3l-58.7-88L695.3,182L562,270l-32,24c0,0-37.3,24-53.3,13.3
		C460.7,296.7,496.7,274,496.7,274z"/>
	<path class="st1" d="M852.7,322.7l1.7,9.7c0,0,54.3-6.8,46.3-41.1C900.7,291.3,903.3,319.9,852.7,322.7z"/>
	<path class="st1" d="M743.3,251.3c0,0-24,26.7-16,42.7s21.3,13.3,21.3,13.3H762c0,0,13.3,8,13.3,21.3c0,13.3,0,12,0,12h-22
		c0,0-58-6.7-50-44S743.3,251.3,743.3,251.3z"/>
	<path class="st0" d="M719.3,312.7c0,0,12.7,15.2,44.3,9.1L770,334C770,334,725.7,331,719.3,312.7z"/>
	<path class="st1" d="M778,358c0,0,13.3,13.3,13.3,26.7C791.3,384.7,767.3,382,778,358z"/>
	<g>
		<g>
			<path d="M466.9,508.7c-2.7,0.3-3.6,0.9-3.7,2.8c-0.1,1.7-0.3,3.1-0.3,6.8v16.9h-2.5l-18.6-21.2v9.6c0,3.7,0.1,5.3,0.2,6.6
				c0.2,1.9,1.1,2.8,4.4,3v1.6h-11.1v-1.6c2.5-0.2,3.7-0.8,3.9-2.8c0.2-1.5,0.3-3,0.3-6.7v-10c0-1.4-0.1-2.3-0.9-3.4
				c-0.8-1.1-1.9-1.2-3.7-1.4v-1.6h8.7l17,18.8v-7.6c0-3.7,0-5.1-0.2-6.7c-0.1-1.8-0.8-2.7-4.6-2.9v-1.6h11V508.7z"/>
			<path d="M469.3,534.6v-1.6c3.4-0.3,3.8-0.6,3.8-4.1v-16.1c0-3.6-0.4-3.9-3.8-4.2v-1.6H483v1.6c-3.3,0.3-3.8,0.6-3.8,4.2v16.1
				c0,3.5,0.4,3.8,3.8,4.1v1.6H469.3z"/>
			<path d="M507.3,514.1c-0.5-1.6-1.2-3.2-2-4c-0.9-0.9-1.5-1.1-3.7-1.1h-3.3c-1.5,0-1.7,0.1-1.7,1.5v9.2h4.8c2.6,0,3-0.6,3.7-3.6
				h1.7v9.4H505c-0.5-2.9-1.2-3.6-3.6-3.6h-4.8v6.6c0,3.9,0.3,4.2,4.3,4.4v1.6h-14.3v-1.6c3.4-0.3,3.8-0.6,3.8-4.4V513
				c0-3.8-0.4-4.1-3.8-4.4v-1.6h15.1c3.8,0,6.1,0,6.8-0.1c0,0.7,0.3,4.4,0.5,6.9L507.3,514.1z"/>
			<path d="M536.5,514.4c-0.5-1.9-1.5-3.6-1.9-4.2c-0.8-0.9-1.2-1.2-3.8-1.2h-2.9v19.9c0,3.6,0.4,3.8,4.4,4.1v1.6h-14.8v-1.6
				c3.8-0.3,4.2-0.6,4.2-4.1V509H519c-2.5,0-3.2,0.4-4.1,1.4c-0.6,0.8-1.2,2.3-1.8,4h-1.7c0.3-3.1,0.6-6.4,0.7-8.4h1.3
				c0.7,1,1.2,1.1,2.5,1.1h17.9c1.2,0,1.8-0.3,2.6-1.1h1.3c0,1.8,0.2,5.5,0.4,8.3L536.5,514.4z"/>
			<path d="M566.9,508.7c-2.9,0.3-3.9,0.9-5.5,3.5c-1.6,2.6-3,5-5.2,9.2c-0.4,0.7-0.5,1.2-0.5,2.2v5.3c0,3.7,0.4,3.8,4,4.2v1.6
				h-14.1v-1.6c3.5-0.4,3.8-0.6,3.8-4.2v-4.9c0-0.9-0.2-1.4-0.5-1.9c-1.3-2.5-2.9-5.3-5.6-9.8c-1.7-2.8-2.3-3.3-4.9-3.6v-1.6h13.1
				v1.6c-3,0.4-2.9,0.9-2.1,2.4c1.5,2.8,3.4,6.1,5.1,9.2c1.3-2.4,3.5-6.4,4.7-9c0.8-1.7,0.5-2.2-2.7-2.6v-1.6h10.4V508.7z"/>
			<path d="M597.1,514.1c-0.5-1.6-1.2-3.2-2-4c-0.9-0.9-1.5-1.1-3.7-1.1h-3.3c-1.5,0-1.7,0.1-1.7,1.5v9.2h4.8c2.6,0,3-0.6,3.7-3.6
				h1.7v9.4h-1.7c-0.5-2.9-1.2-3.6-3.6-3.6h-4.8v6.6c0,3.9,0.3,4.2,4.3,4.4v1.6h-14.3v-1.6c3.4-0.3,3.8-0.6,3.8-4.4V513
				c0-3.8-0.4-4.1-3.8-4.4v-1.6h15.1c3.8,0,6.1,0,6.8-0.1c0,0.7,0.3,4.4,0.5,6.9L597.1,514.1z"/>
			<path d="M601.9,534.6v-1.6c3.4-0.3,3.8-0.6,3.8-4.1v-16.1c0-3.6-0.4-3.9-3.8-4.2v-1.6h13.8v1.6c-3.3,0.3-3.8,0.6-3.8,4.2v16.1
				c0,3.5,0.4,3.8,3.8,4.1v1.6H601.9z"/>
			<path d="M639.9,514.1c-0.5-1.6-1.2-3.2-2-4c-0.9-0.9-1.5-1.1-3.7-1.1h-3.3c-1.5,0-1.7,0.1-1.7,1.5v9.2h4.8c2.6,0,3-0.6,3.7-3.6
				h1.7v9.4h-1.7c-0.5-2.9-1.2-3.6-3.6-3.6h-4.8v6.6c0,3.9,0.3,4.2,4.3,4.4v1.6h-14.3v-1.6c3.4-0.3,3.8-0.6,3.8-4.4V513
				c0-3.8-0.4-4.1-3.8-4.4v-1.6h15.1c3.8,0,6.1,0,6.8-0.1c0,0.7,0.3,4.4,0.5,6.9L639.9,514.1z"/>
			<path d="M669.1,514.4c-0.5-1.9-1.5-3.6-1.9-4.2c-0.8-0.9-1.2-1.2-3.8-1.2h-2.9v19.9c0,3.6,0.4,3.8,4.4,4.1v1.6h-14.8v-1.6
				c3.8-0.3,4.2-0.6,4.2-4.1V509h-2.7c-2.5,0-3.2,0.4-4.1,1.4c-0.6,0.8-1.2,2.3-1.8,4h-1.7c0.3-3.1,0.6-6.4,0.7-8.4h1.3
				c0.7,1,1.2,1.1,2.5,1.1h17.9c1.2,0,1.8-0.3,2.6-1.1h1.3c0,1.8,0.2,5.5,0.4,8.3L669.1,514.4z"/>
			<path d="M699.5,508.7c-2.9,0.3-3.9,0.9-5.5,3.5c-1.6,2.6-3,5-5.2,9.2c-0.4,0.7-0.5,1.2-0.5,2.2v5.3c0,3.7,0.4,3.8,4,4.2v1.6
				h-14.1v-1.6c3.5-0.4,3.8-0.6,3.8-4.2v-4.9c0-0.9-0.2-1.4-0.5-1.9c-1.3-2.5-2.9-5.3-5.6-9.8c-1.7-2.8-2.3-3.3-4.9-3.6v-1.6h13.1
				v1.6c-3,0.4-2.9,0.9-2.1,2.4c1.5,2.8,3.4,6.1,5.1,9.2c1.3-2.4,3.5-6.4,4.7-9c0.8-1.7,0.5-2.2-2.7-2.6v-1.6h10.4V508.7z"/>
			<path d="M733.5,514.4c-0.5-1.9-1.5-3.6-1.9-4.2c-0.8-0.9-1.2-1.2-3.8-1.2H725v19.9c0,3.6,0.4,3.8,4.4,4.1v1.6h-14.8v-1.6
				c3.8-0.3,4.2-0.6,4.2-4.1V509H716c-2.5,0-3.2,0.4-4.1,1.4c-0.6,0.8-1.2,2.3-1.8,4h-1.7c0.3-3.1,0.6-6.4,0.7-8.4h1.3
				c0.7,1,1.2,1.1,2.5,1.1h17.9c1.2,0,1.8-0.3,2.6-1.1h1.3c0,1.8,0.2,5.5,0.4,8.3L733.5,514.4z"/>
			<path d="M766.2,534.9c-0.3,0-0.8,0-1.3,0c-5.7-0.3-7.3-1.4-8.7-3.2c-1.8-2.3-3.1-4.9-4.6-7.5c-0.7-1.1-1.3-1.4-2.7-1.4l-0.9,0
				v6.2c0,3.4,0.4,3.7,3.8,4.1v1.6h-13.7v-1.6c3.4-0.3,3.8-0.7,3.8-4.1v-16.2c0-3.3-0.4-3.8-3.8-4.1v-1.6h12.9c4,0,6.2,0.4,8.1,1.6
				c1.8,1.1,3,3,3,5.6c0,3.8-2.6,5.8-5.6,6.9c0.7,1.3,2.4,4,3.7,6c1.6,2.3,2.5,3.5,3.4,4.4c1,1.1,1.5,1.4,2.8,1.9L766.2,534.9z
				 M749.2,521c1.9,0,3.4-0.3,4.4-1.1c1.5-1.2,2.1-2.8,2.1-5c0-4.5-2.7-6.1-5.2-6.1c-1.2,0-1.8,0.2-2.1,0.4
				c-0.3,0.3-0.4,0.8-0.4,1.6V521H749.2z"/>
			<path d="M781.4,534.6v-1.6c2.8-0.4,2.8-0.8,2.2-2.7c-0.4-1.3-1.2-3.2-1.8-4.9H773c-0.5,1.3-1.1,2.9-1.6,4.2
				c-0.9,2.7,0.1,3,3.7,3.3v1.6h-11v-1.6c2.8-0.3,3.5-0.7,5-4.3l9.3-21.9l2.1-0.4c2.9,7.4,5.9,14.9,8.8,22c1.7,3.9,2.1,4.2,5,4.6
				v1.6H781.4z M777.5,514.4c-1.3,3-2.5,5.9-3.7,9h7.1L777.5,514.4z"/>
			<path d="M808.5,507.1c5.7,0,9.9,1.1,12.8,3.7c2.3,2,4,5,4,9.2c0,4.9-2.1,8.6-5.6,11.1c-3.3,2.4-7.5,3.6-12.6,3.6h-12.3v-1.6
				c3.4-0.3,3.8-0.6,3.8-4.2v-16.1c0-3.6-0.5-3.9-3.8-4.2v-1.6H808.5z M804.8,528.6c0,3,0.8,4,4.1,4c6,0,9.5-4,9.5-12
				c0-4-1.2-7.5-3.2-9.4c-1.9-1.8-4.2-2.4-7.2-2.4c-1.7,0-2.4,0.3-2.7,0.6c-0.4,0.4-0.5,1.1-0.5,2.3V528.6z"/>
			<path d="M853.5,527.4c-0.2,1.1-1.5,6-1.9,7.2h-23.2v-1.5c4.1-0.4,4.3-0.6,4.3-4.2v-16.2c0-3.6-0.5-3.9-3.6-4.1v-1.6h14.5
				c4.7,0,6.2,0,6.9-0.1c0,0.8,0.3,4.2,0.4,6.9l-1.7,0.2c-0.4-1.4-1.2-3.2-1.9-3.9c-0.8-0.8-1.4-1.1-3.7-1.1h-2.9
				c-1.7,0-1.9,0.1-1.9,1.5v8.9h4.4c2.5,0,2.9-0.6,3.6-3.6h1.7v9.4h-1.7c-0.7-3.1-1.1-3.6-3.7-3.6h-4.3v7.3c0,2.9,0.1,3.8,2.9,3.9
				h3.2c2.5,0,3.2-0.3,4.2-1.4c1.1-1.2,2-2.8,2.7-4.2L853.5,527.4z"/>
			<path d="M884.2,534.9c-0.3,0-0.8,0-1.3,0c-5.7-0.3-7.3-1.4-8.7-3.2c-1.8-2.3-3.1-4.9-4.6-7.5c-0.7-1.1-1.3-1.4-2.7-1.4l-0.9,0
				v6.2c0,3.4,0.4,3.7,3.8,4.1v1.6h-13.7v-1.6c3.4-0.3,3.8-0.7,3.8-4.1v-16.2c0-3.3-0.4-3.8-3.8-4.1v-1.6H869c4,0,6.2,0.4,8.1,1.6
				c1.8,1.1,3,3,3,5.6c0,3.8-2.6,5.8-5.6,6.9c0.7,1.3,2.4,4,3.7,6c1.6,2.3,2.5,3.5,3.4,4.4c1,1.1,1.5,1.4,2.8,1.9L884.2,534.9z
				 M867.2,521c1.9,0,3.4-0.3,4.4-1.1c1.5-1.2,2.1-2.8,2.1-5c0-4.5-2.7-6.1-5.2-6.1c-1.2,0-1.8,0.2-2.1,0.4
				c-0.3,0.3-0.4,0.8-0.4,1.6V521H867.2z"/>
			<path d="M901.9,514.1c-0.9-2.7-2.1-5.8-6.2-5.8c-2.6,0-4.3,1.7-4.3,4.1c0,2.3,1.7,3.7,5.6,5.6c4.8,2.2,7.8,4.4,7.8,8.6
				c0,5-4.4,8.6-10.8,8.6c-2.9,0-5.4-0.7-7.5-1.3c-0.3-1-1-5.4-1.3-7.4l1.7-0.4c0.9,2.7,3.4,7.3,7.8,7.3c2.7,0,4.4-1.6,4.4-4.3
				c0-2.5-1.6-3.9-5.4-5.8c-4.6-2.4-7.7-4.5-7.7-8.9c0-4.4,3.7-8,10.4-8c3.1,0,5.4,0.6,6.4,0.8c0.2,1.6,0.5,3.8,0.8,6.4L901.9,514.1
				z"/>
		</g>
	</g>
</g>
</svg>
